# xmcd CD database file
#
# Track frame offsets:
#	150
#	7695
#	21565
#	35765
#	46212
#	60734
#	76046
#	89974
#	99765
#	119230
#	127383
#	138358
#	151156
#	160426
#
# Disc length: 2417 seconds
#
# Revision: 1
# Processed by: cddbd v1.4PL0 Copyright (c) Steve Scherf et al.
# Submitted via: CDex 1.40Beta8
#
DISCID=bc096f0e
DTITLE=Marty Robbins - Gunfighter Ballads and Trail Songs
DYEAR=1959
DGENRE=Country
TTITLE0=100 Sixty Acres
TTITLE1=They're Hanging Me Tonight
TTITLE2=Cool Water
TTITLE3=Billy The Kid
TTITLE4=Utah Carol
TTITLE5=The Strawberry Roan
TTITLE6=The Master's Call
TTITLE7=Running Gun
TTITLE8=El Paso
TTITLE9=In The Valley
TTITLE10=The Little Green Valley
TTITLE11=The Hanging Tree
TTITLE12=Saddle Tramp
TTITLE13=El Paso (full length)
EXTD=YEAR: 1959 ID3G: 2
EXTT0=
EXTT1=
EXTT2=
EXTT3=
EXTT4=
EXTT5=
EXTT6=
EXTT7=
EXTT8=
EXTT9=
EXTT10=
EXTT11=
EXTT12=
EXTT13=
PLAYORDER=
